<?xml version="1.0" encoding="utf-8"?><svg xmlns="http://www.w3.org/2000/svg" xmlns:xlink="http://www.w3.org/1999/xlink"><symbol viewBox="0 0 84 84" id="close"><path d="M42 0C18.803 0 0 18.807 0 42c0 23.197 18.803 42 42 42 23.193 0 42-18.803 42-42C84 18.807 65.193 0 42 0zm8.643 42l15.303 15.302-8.643 8.642-15.301-15.301-15.303 15.301-8.641-8.642L33.359 42l-15.3-15.298 8.641-8.646L42 33.357l15.301-15.299 8.643 8.641L50.643 42z"/></symbol><symbol viewBox="0 0 50 80" id="mark"><path d="M25 0C11.191 0 0 11.194 0 25c0 23.87 25 55 25 55s25-31.13 25-55C50 11.194 38.807 0 25 0zm0 38.8c-7.457 0-13.5-6.044-13.5-13.5S17.543 11.8 25 11.8c7.455 0 13.5 6.044 13.5 13.5S32.455 38.8 25 38.8z"/></symbol><symbol viewBox="0 0 100 90" id="message"><path d="M29 56V25H10C4.5 25 0 29.5 0 35v30c0 5.5 4.5 10 10 10h5v15l15-15h25c5.5 0 10-4.5 10-10v-9.102A4.923 4.923 0 0 1 64 56H29zM90 0H45c-5.5 0-10 4.5-10 10v40h35l15 15V50h5c5.5 0 10-4.5 10-10V10c0-5.5-4.5-10-10-10z"/></symbol><symbol viewBox="0 0 100 100.001" id="sun"><path d="M95 46.001h-4.9c-2.762 0-5 1.791-5 4s2.238 4 5 4H95c2.762 0 5-1.791 5-4s-2.238-4-5-4zM50 22.502a27.418 27.418 0 0 0-27.5 27.499c0 15.252 12.248 27.501 27.5 27.501s27.5-12.249 27.5-27.501A27.418 27.418 0 0 0 50 22.502zm0 47.499c-11.051 0-20-8.95-20-20C30 38.952 38.949 30 50 30c11.049 0 20 8.952 20 20.001 0 11.05-8.951 20-20 20zm-35.102-20c0-2.209-2.137-4-4.898-4H5c-2.762 0-5 1.791-5 4s2.238 4 5 4h5c2.762 0 4.898-1.791 4.898-4zM50 15c2.209 0 4-2.238 4-5V5c0-2.762-1.791-5-4-5s-4 2.238-4 5v5c0 2.762 1.791 5 4 5zm0 70.001c-2.209 0-4 2.238-4 5v5c0 2.762 1.791 5 4 5s4-2.238 4-5v-5c0-2.762-1.791-5-4-5zM86.828 18.83c1.953-1.952 2.27-4.803.707-6.365s-4.412-1.244-6.363.707l-3.5 3.5c-1.953 1.953-2.27 4.802-.707 6.363 1.562 1.563 4.412 1.247 6.363-.705.539-.539 2.963-2.961 3.5-3.5zM16.67 77.673c-.539.539-2.961 2.963-3.5 3.5-1.951 1.951-2.268 4.801-.707 6.363 1.562 1.562 4.412 1.244 6.363-.707.539-.537 2.963-2.959 3.5-3.498 1.953-1.952 2.27-4.803.707-6.365s-4.412-1.244-6.363.707zm2.16-64.501c-1.953-1.952-4.803-2.27-6.365-.707s-1.244 4.412.707 6.364l3.5 3.5c1.953 1.952 4.801 2.269 6.363.706s1.246-4.411-.705-6.363l-3.5-3.5zm58.842 70.159l3.502 3.499c1.951 1.951 4.801 2.269 6.363.707 1.561-1.562 1.244-4.412-.707-6.363l-3.5-3.5c-1.951-1.952-4.803-2.27-6.365-.707s-1.244 4.412.707 6.364z"/></symbol><symbol viewBox="0 0 100 88" id="users"><path d="M100 88s-.197-18.934-1.354-20.896c-1.721-2.923-5.729-4.932-13.17-8.041-7.416-3.101-9.787-5.716-9.787-11.316 0-3.364 2.264-2.264 3.26-8.419.412-2.555 2.412-.043 2.795-5.872 0-2.324-1.092-2.903-1.092-2.903s.555-3.437.771-6.084c.27-3.298-1.662-11.815-11.955-11.815-10.295 0-12.225 8.518-11.955 11.815.217 2.647.77 6.084.77 6.084s-1.09.579-1.09 2.903c.383 5.829 2.381 3.317 2.795 5.872.994 6.155 3.26 5.056 3.26 8.419 0 3.807-1.102 6.235-4.137 8.375 16.203 8.111 18.375 9.764 18.375 17.015V88H100zM51.117 61.877c-9.891-4.134-13.051-7.621-13.051-15.086 0-4.483 3.02-3.019 4.346-11.228.549-3.404 3.217-.056 3.727-7.829 0-3.098-1.455-3.868-1.455-3.868s.74-4.583 1.029-8.112C46.072 11.357 43.498 0 29.771 0c-13.724 0-16.3 11.357-15.939 15.754.289 3.529 1.027 8.112 1.027 8.112s-1.455.77-1.455 3.868c.512 7.773 3.178 4.425 3.729 7.829 1.326 8.208 4.346 6.744 4.346 11.228 0 7.465-3.162 10.952-13.051 15.086C5.414 63.137 0 65.088 0 69.783V88h69.469V74.341c0-4.282-8.432-8.316-18.352-12.464z"/></symbol></svg>